<?xml version="1.0" encoding="UTF-8"?>
<svg xmlns="http://www.w3.org/2000/svg" width="155" height="44" viewBox="0 0 155 44" fill="none">
  <path d="M18.5402 20.4509C7.09919 25.3184 1.4224 37.5868 0.0462835 43.228C0.0373113 43.2523 0.0306182 43.2774 0.0262993 43.3029C0.0224836 43.3378 0.0224836 43.3729 0.0262993 43.4078C0.0262987 43.4857 0.0416932 43.5628 0.0715953 43.6347C0.101497 43.7067 0.145319 43.772 0.200547 43.827C0.255776 43.8819 0.321321 43.9254 0.393423 43.955C0.465525 43.9846 0.542763 43.9997 0.620703 43.9993C0.707505 44.0001 0.79338 43.9814 0.87203 43.9447C0.95068 43.908 1.02011 43.8542 1.07525 43.7872C8.88989 33.7353 22.0866 23.6435 27.1141 25.7752C31.627 27.6847 30.6305 38.4405 29.4792 43.3079C29.4754 43.3411 29.4754 43.3746 29.4792 43.4078V43.4302C29.4841 43.5486 29.5242 43.6629 29.5946 43.7583C29.6649 43.8537 29.7622 43.9259 29.8739 43.9656C29.9856 44.0053 30.1066 44.0107 30.2214 43.9811C30.3362 43.9516 30.4396 43.8884 30.5182 43.7997C30.5481 43.7547 30.5781 43.7123 30.6056 43.6674C38.4202 31.5736 35.9627 13.0399 18.5402 20.4509Z" fill="white"></path>
  <path d="M5.91053 25.9551C5.94948 25.9557 5.9881 25.948 6.02384 25.9325C6.05958 25.917 6.09161 25.8941 6.11781 25.8653C9.03239 22.9223 18.7976 14.1659 30.1112 16.1129H30.1636H30.1886C30.2677 16.1116 30.343 16.0791 30.3982 16.0225C30.4534 15.966 30.484 15.8899 30.4833 15.8109C30.4838 15.7552 30.4682 15.7006 30.4384 15.6536L30.4009 15.6037C29.6517 14.6053 28.1532 12.7007 26.7746 11.0657C24.9564 8.9016 22.6887 8.39988 17.339 10.6838C10.953 13.4121 7.26167 20.868 5.65828 25.5158C5.65828 25.5383 5.64079 25.5607 5.6333 25.5832C5.632 25.604 5.632 25.6248 5.6333 25.6456C5.63112 25.7228 5.65865 25.798 5.71022 25.8555C5.76179 25.9131 5.83347 25.9488 5.91053 25.9551Z" fill="white"></path>
  <path d="M12.3467 10.9782C12.408 10.9755 12.4671 10.9546 12.5166 10.9183C13.7528 9.85995 15.9306 8.22248 18.2883 7.50859C19.6478 7.11615 21.0519 6.8989 22.4666 6.86211H22.5015C22.5788 6.85515 22.6505 6.81898 22.702 6.76101C22.7535 6.70303 22.781 6.6276 22.7787 6.55009C22.7736 6.46904 22.739 6.39267 22.6813 6.33543L17.2743 0.122577C17.2645 0.106966 17.2518 0.0933939 17.2368 0.0826304C17.2081 0.0548983 17.174 0.0332908 17.1366 0.0191305C17.0993 0.00497016 17.0594 -0.00143626 17.0195 0.000269391C16.9695 0.00204124 16.9206 0.0158931 16.8771 0.0406729C16.8336 0.0654528 16.7968 0.100408 16.7698 0.142535C16.7576 0.162761 16.7484 0.184614 16.7423 0.207437L12.0845 10.5039C12.0638 10.5341 12.0494 10.568 12.042 10.6038C12.0381 10.6311 12.0381 10.6588 12.042 10.6862C12.0459 10.7645 12.0796 10.8385 12.1362 10.8928C12.1929 10.9471 12.2682 10.9777 12.3467 10.9782Z" fill="#DB292C"></path>
  <path d="M65.7727 21.0608C65.872 21.2912 65.9554 21.528 66.0224 21.7697H61.2197C61.1748 21.5825 61.1112 21.4002 61.0299 21.2256L60.1808 19.2936H50.7453L49.9211 21.2031C49.8433 21.3846 49.788 21.5749 49.7563 21.7697H44.8237C44.8907 21.528 44.9742 21.2912 45.0735 21.0608L50.7827 8.42547C51.6793 6.44355 53.1179 5.47754 55.4056 5.47754C57.6234 5.47754 59.1094 6.44355 60.006 8.42547L65.7727 21.0608ZM58.6248 15.7815L56.1723 10.0754C56.1193 9.92524 56.0198 9.79588 55.8882 9.70611C55.7566 9.61633 55.5998 9.57082 55.4405 9.57618C55.2843 9.57212 55.131 9.6185 55.0032 9.70842C54.8754 9.79835 54.7801 9.92704 54.7313 10.0754L52.3037 15.7815H58.6248Z" fill="white"></path>
  <path d="M77.0487 5.83177C79.6186 5.83177 81.5292 6.63303 82.9453 7.92852C84.4898 9.36099 85.4097 11.3424 85.5068 13.4461C85.604 15.5498 84.8706 17.6074 83.4647 19.176C82.0012 20.7785 79.9033 21.7695 77.0487 21.7695H68.4373C67.753 21.7695 67.4009 21.44 67.4009 20.7561V6.82023C67.4009 6.16125 67.753 5.82178 68.4373 5.82178L77.0487 5.83177ZM71.9763 10.0502C71.764 10.0502 71.6691 10.1451 71.6691 10.3822V17.2415C71.6691 17.4911 71.764 17.571 71.9763 17.571H77.0487C78.5472 17.571 79.5712 17.1018 80.2555 16.3454C80.8953 15.6615 81.2522 14.7607 81.2545 13.8244C81.2557 13.3105 81.1518 12.8019 80.9491 12.3297C80.7464 11.8575 80.4491 11.4317 80.0756 11.0786C79.3913 10.4421 78.4947 10.0402 77.0562 10.0402L71.9763 10.0502Z" fill="white"></path>
  <path d="M105.827 21.0604C105.927 21.2907 106.01 21.5275 106.077 21.7692H101.274C101.229 21.582 101.166 21.3997 101.085 21.2251L100.235 19.2931H90.8L89.9758 21.2026C89.8984 21.3844 89.8422 21.5746 89.8085 21.7692H84.8784C84.9454 21.5275 85.0289 21.2907 85.1282 21.0604L90.8374 8.42499C91.734 6.44306 93.1726 5.47705 95.4603 5.47705C97.678 5.47705 99.1641 6.44306 100.061 8.42499L105.827 21.0604ZM98.6795 15.781L96.2195 10.0749C96.1665 9.92476 96.067 9.79539 95.9354 9.70562C95.8038 9.61584 95.647 9.57033 95.4877 9.57569C95.3315 9.57164 95.1782 9.61801 95.0504 9.70793C94.9226 9.79786 94.8273 9.92655 94.7785 10.0749L92.3509 15.781H98.6795Z" fill="white"></path>
  <path d="M117.291 20.6361L112.453 10.6166C112.424 10.56 112.38 10.5125 112.326 10.4794C112.272 10.4464 112.21 10.429 112.146 10.4294C112.093 10.4302 112.04 10.4421 111.991 10.4643C111.943 10.4865 111.899 10.5186 111.864 10.5585C111.828 10.5984 111.802 10.6453 111.785 10.6962C111.769 10.747 111.763 10.8007 111.769 10.8538V21.7693H107.666V10.0975C107.666 8.30773 108.21 7.19945 109.152 6.44312C109.942 5.81255 110.925 5.47163 111.936 5.47713C113.964 5.47713 115.146 6.68026 115.97 8.44752L119.579 16.2754C119.673 16.51 119.791 16.5824 119.981 16.5824C120.17 16.5824 120.288 16.51 120.38 16.2754L123.989 8.44752C124.816 6.68026 125.987 5.47713 128.025 5.47713C129.036 5.47119 130.018 5.81219 130.807 6.44312C131.751 7.19196 132.306 8.30773 132.306 10.0975V21.7693H128.187V10.8463C128.193 10.7932 128.187 10.7395 128.171 10.6887C128.155 10.6378 128.128 10.591 128.092 10.551C128.057 10.5111 128.014 10.479 127.965 10.4568C127.916 10.4346 127.864 10.4227 127.81 10.422C127.747 10.4213 127.684 10.4385 127.63 10.4716C127.576 10.5047 127.532 10.5523 127.503 10.6092L122.668 20.6286C122.168 21.642 121.11 22.0913 119.978 22.0913C118.847 22.0913 117.785 21.6495 117.291 20.6361Z" fill="white"></path>
  <path d="M142.72 21.7693C139.866 21.7693 137.765 20.7708 136.304 19.1758C134.969 17.7042 134.237 15.7852 134.251 13.7991C134.252 12.6964 134.48 11.6057 134.923 10.5954C135.365 9.58513 136.011 8.6771 136.821 7.92829C138.237 6.6328 140.148 5.83154 142.72 5.83154H146.069C148.642 5.83154 150.552 6.6328 151.966 7.92829C153.512 9.36009 154.432 11.3417 154.529 13.4457C154.627 15.5498 153.892 17.6078 152.485 19.1758C151.022 20.7783 148.924 21.7693 146.069 21.7693H142.72ZM142.72 10.0375C141.282 10.0375 140.385 10.4394 139.701 11.0759C139.326 11.4285 139.028 11.8541 138.825 12.3264C138.622 12.7986 138.518 13.3076 138.519 13.8216C138.523 14.7577 138.88 15.6581 139.518 16.3427C140.203 17.0915 141.217 17.5683 142.728 17.5683H146.069C147.568 17.5683 148.594 17.099 149.279 16.3427C149.918 15.6582 150.274 14.7578 150.278 13.8216C150.28 13.3076 150.177 12.7985 149.974 12.3262C149.771 11.8538 149.473 11.4282 149.099 11.0759C148.414 10.4394 147.518 10.0375 146.079 10.0375H142.72Z" fill="white"></path>
  <path d="M56.8565 30.6578H49.3641C49.2483 30.645 49.1311 30.6561 49.0199 30.6904C48.9086 30.7248 48.8056 30.7816 48.7172 30.8575C48.6473 30.9286 48.5923 31.0128 48.5554 31.1054C48.5186 31.198 48.5005 31.297 48.5024 31.3966C48.5 31.5018 48.5212 31.6061 48.5644 31.702C48.6076 31.7979 48.6718 31.8829 48.7522 31.9508C48.9243 32.0783 49.1392 32.1338 49.3516 32.1055H53.9245C55.0958 32.1055 55.88 32.475 56.422 33.0441C56.9889 33.6186 57.3096 34.3913 57.3161 35.1982C57.3095 35.9454 57.0368 36.6657 56.5468 37.2301C55.9774 37.8915 55.1457 38.3084 53.912 38.3084H45.8751V35.645H53.4524C53.8845 35.645 54.0993 35.5527 54.2391 35.3954C54.3508 35.262 54.4103 35.0926 54.4065 34.9187C54.4105 34.7129 54.3333 34.5139 54.1917 34.3645C54.0543 34.2098 53.852 34.1324 53.4424 34.1324H49.1967C47.8106 34.1324 47.0114 33.763 46.4495 33.1939C45.8814 32.6152 45.5654 31.8354 45.5704 31.0247C45.5737 30.2127 45.8946 29.4343 46.4645 28.8556C47.0189 28.284 47.8031 27.9146 49.1892 27.9146H56.8291L56.8565 30.6578Z" fill="white"></path>
  <path d="M63.7696 38.3038C61.9065 38.3038 60.5229 37.6573 59.5813 36.6089C58.6633 35.5854 58.1842 34.2425 58.2472 32.8694C58.3103 31.4963 58.9105 30.2029 59.9185 29.2678C60.8426 28.4216 62.0913 27.8975 63.7696 27.8975H65.9549C67.6357 27.8975 68.882 28.4216 69.806 29.2678C70.8144 30.2026 71.415 31.4958 71.4786 32.8689C71.5421 34.242 71.0634 35.5851 70.1457 36.6089C69.1892 37.6573 67.8205 38.3038 65.9549 38.3038H63.7696ZM63.7696 30.6532C62.8306 30.6532 62.2436 30.9153 61.7991 31.3296C61.329 31.7693 61.052 32.3769 61.0286 33.02C61.0052 33.663 61.2373 34.2892 61.6742 34.7618C62.1213 35.261 62.7831 35.563 63.7696 35.563H65.9549C66.9414 35.563 67.6033 35.256 68.0503 34.7618C68.4654 34.3144 68.6964 33.727 68.6972 33.1168C68.6975 32.7823 68.6294 32.4512 68.4971 32.1439C68.3649 31.8365 68.1712 31.5595 67.9279 31.3296C67.4809 30.9153 66.8965 30.6532 65.9549 30.6532H63.7696Z" fill="white"></path>
  <path d="M83.7571 27.9023V30.6481H76.0149C75.7202 30.6481 75.5828 30.8029 75.5828 31.1099V32.2331H83.6972V34.8191H75.5953V38.3037H72.8081V29.8169C72.8081 28.5239 73.44 27.9073 74.6862 27.9073L83.7571 27.9023Z" fill="white"></path>
  <path d="M96.7392 27.9023V30.6481H92.1788V38.3037H89.3766V30.6531H84.8037V27.9073L96.7392 27.9023Z" fill="white"></path>
  <path d="M106.654 30.4581L105.036 36.1992C104.591 37.7992 103.619 38.5231 102.019 38.5231C100.125 38.5231 99.2164 37.5246 98.9991 36.1992L97.7179 28.3964C97.6878 28.2316 97.6719 28.0646 97.6704 27.8971H100.612C100.612 28.007 100.627 28.1592 100.642 28.299L101.736 35.408C101.766 35.6576 101.891 35.7624 102.106 35.7624C102.321 35.7624 102.413 35.685 102.476 35.4404L104.061 29.8516C104.491 28.3539 105.325 27.6675 107.004 27.6675C108.682 27.6675 109.451 28.3589 109.836 29.7767L111.392 35.4404C111.454 35.69 111.576 35.7624 111.761 35.7624C111.946 35.7624 112.083 35.6551 112.131 35.408L113.317 28.299C113.34 28.1663 113.35 28.0317 113.347 27.8971H116.257C116.254 28.0644 116.239 28.2313 116.212 28.3964L114.826 36.2142C114.576 37.5846 113.654 38.5231 111.776 38.5231C110.205 38.5231 109.251 37.7743 108.834 36.1992L107.336 30.4581C107.276 30.226 107.166 30.1511 106.999 30.1511C106.831 30.1511 106.709 30.226 106.654 30.4581Z" fill="white"></path>
  <path d="M128.889 37.847C128.958 37.9962 129.015 38.1506 129.059 38.3088H125.917C125.888 38.1869 125.847 38.0682 125.795 37.9544L125.24 36.6913H119.079L118.542 37.9394C118.491 38.0579 118.454 38.1819 118.432 38.3088H115.215C115.26 38.1506 115.316 37.9962 115.385 37.847L119.111 29.5974C119.696 28.3044 120.635 27.6729 122.128 27.6729C123.577 27.6729 124.546 28.3044 125.125 29.5974L128.889 37.847ZM124.224 34.3974L122.623 30.6732C122.586 30.5765 122.52 30.4935 122.434 30.4359C122.349 30.3782 122.247 30.3486 122.143 30.3512C122.042 30.3486 121.943 30.3785 121.861 30.4365C121.778 30.4945 121.716 30.5774 121.684 30.6732L120.095 34.3974H124.224Z" fill="white"></path>
  <path d="M132.933 38.3038H130.15V28.5439C130.15 28.1146 130.383 27.8975 130.845 27.8975H138.237C139.513 27.8975 140.33 28.2819 140.9 28.8959C141.428 29.4474 141.725 30.1795 141.731 30.9427C141.731 31.7739 141.481 32.5577 140.747 33.0969C141.439 33.5137 141.746 34.0679 141.746 35.2535V37.3303C141.743 37.6637 141.759 37.9971 141.794 38.3287H138.977C138.945 38.0988 138.929 37.8669 138.929 37.6348V35.558C138.929 34.8966 138.604 34.6345 137.79 34.6345H132.933V38.3038ZM137.86 32.2382C138.009 32.2475 138.157 32.2219 138.294 32.1634C138.43 32.1049 138.551 32.015 138.647 31.9012C138.773 31.7493 138.843 31.5592 138.847 31.362C138.85 31.144 138.767 30.9334 138.617 30.7755C138.518 30.6802 138.4 30.6065 138.271 30.5588C138.142 30.5111 138.005 30.4906 137.868 30.4984H133.182C133.151 30.4953 133.12 30.4992 133.09 30.5097C133.06 30.5203 133.033 30.5373 133.011 30.5595C132.989 30.5817 132.972 30.6086 132.961 30.6382C132.951 30.6677 132.947 30.6993 132.95 30.7306V32.2282L137.86 32.2382Z" fill="white"></path>
  <path d="M154.051 27.9024V30.6482H146.134C145.965 30.6482 145.885 30.7405 145.885 30.9103V32.0959H153.999V34.0928H145.89V35.3558C145.89 35.5406 145.965 35.6329 146.139 35.6329H154.056V38.3038H144.566C143.597 38.3038 143.105 37.8245 143.105 36.856V29.2978C143.105 28.3592 143.604 27.8975 144.581 27.8975L154.051 27.9024Z" fill="white"></path>
</svg>
